<?xml version="1.0" encoding="utf-8"?>
<!-- Generator: Adobe Illustrator 27.0.0, SVG Export Plug-In . SVG Version: 6.00 Build 0)  -->
<svg version="1.1" id="Layer_1" xmlns="http://www.w3.org/2000/svg" xmlns:xlink="http://www.w3.org/1999/xlink" x="0px" y="0px"
	 viewBox="0 0 10 10" style="enable-background:new 0 0 10 10;" xml:space="preserve">
<style type="text/css">
	.st0{fill:#F78E1E;}
	.st1{fill:#FFFFFF;}
</style>
<circle class="st0" cx="5" cy="5" r="4.7"/>
<g>
	<path class="st1" d="M3.3,2.9C3.8,2.9,4,3.5,4,4.2c0,0.2,0,0.4,0,0.6h0c0.6-1.3,1-1.8,1.6-1.8c0.5,0,0.9,0.5,0.9,1.4
		c0,0.1,0,0.3,0,0.5h0c0.6-1.3,1-1.8,1.5-1.8c0.4,0,0.7,0.3,0.7,0.9c0,1.2-1.9,2.8-3.6,3.5L4.4,7.6h0c0.1-0.5,0.3-1.1,0.5-1.8h0
		c-0.4,0.5-1,1.1-2.2,1.5L1.9,7.6h0c0.2-0.8,0.7-2.3,0.7-3.2c0-0.5-0.1-0.6-0.2-0.6C2.2,3.8,2,4,1.8,4.2H1.8
		C2.2,3.6,2.7,2.9,3.3,2.9z M3.5,6.8c1.1-0.6,1.5-1.6,1.5-2.4c0-0.4-0.1-0.6-0.3-0.6C4.6,3.8,4.4,4,3.9,5.2C3.8,5.7,3.6,6.3,3.5,6.8
		L3.5,6.8z M6,6.8C7,6.2,7.5,5.2,7.5,4.4c0-0.4-0.1-0.6-0.3-0.6C7.1,3.8,6.9,4,6.4,5.2C6.3,5.8,6.1,6.4,6,6.8L6,6.8z"/>
</g>
</svg>
