<?xml version="1.0" encoding="UTF-8"?>
<svg id="Layer_1" data-name="Layer 1" xmlns="http://www.w3.org/2000/svg" viewBox="0 0 152.14 65.31">
  <defs>
    <style>
      .cls-1 {
        fill: #fff;
      }
    </style>
  </defs>
  <g>
    <path class="cls-1" d="M13.38,0c4.28,0,6.31,4.81,6.31,10.9,0,1.65-.15,3.46-.38,5.26h.23C24.88,4.96,28.56,0,33.52,0c4.43,0,7.74,4.21,7.74,11.95,0,1.28-.08,2.71-.3,4.21h.23C46.45,4.96,49.91,0,54.35,0c3.31,0,6.54,2.78,6.54,7.74,0,10.9-16.39,24.73-31.34,30.82l-6.31,2.56h-.3c1.13-3.98,3.01-10.07,4.43-16.09h-.3c-3.23,4.21-8.87,9.32-19.32,13.53l-6.31,2.56h-.3c2.03-6.92,6.09-20.37,6.09-28.11,0-4.06-.98-4.89-2.1-4.89-1.5,0-3.23,1.8-4.43,3.16H0C3.91,6.39,8.42,0,13.38,0Zm2.03,33.9c9.47-5.49,13.61-13.68,13.61-20.82,0-3.46-1.13-4.96-2.41-4.96-1.43,0-3.16,1.35-7.82,11.58-.9,5.11-2.33,10.3-3.53,14.21h.15Zm21.72,0c9.4-5.49,13.53-13.68,13.53-20.82,0-3.46-1.13-4.96-2.41-4.96-1.35,0-3.16,1.35-7.82,11.58-.9,5.26-2.41,10.75-3.46,14.21h.15Z"/>
    <path class="cls-1" d="M69.98,39.99c-8.19,0-14.21-5.19-14.21-13.91,0-14.58,12.18-26.08,25.03-26.08,8.04,0,14.28,4.96,14.28,14.06,0,13.68-12.4,25.93-25.11,25.93Zm2.26-.98c4.89,0,9.92-18.19,9.92-29.17,0-5.41-1.28-8.87-3.16-8.87-5.11,0-10.3,17.21-10.3,28.34,0,5.79,1.2,9.7,3.53,9.7Z"/>
    <path class="cls-1" d="M104.63,0c4.28,0,6.31,4.81,6.31,10.9,0,1.65-.15,3.46-.38,5.26h.23C116.13,4.96,119.81,0,124.78,0c4.43,0,7.74,4.21,7.74,11.95,0,1.28-.08,2.71-.3,4.21h.23c5.26-11.2,8.72-16.16,13.15-16.16,3.31,0,6.54,2.78,6.54,7.74,0,10.9-16.39,24.73-31.34,30.82l-6.31,2.56h-.3c1.13-3.98,3.01-10.07,4.43-16.09h-.3c-3.23,4.21-8.87,9.32-19.32,13.53l-6.31,2.56h-.3c2.03-6.92,6.09-20.37,6.09-28.11,0-4.06-.98-4.89-2.1-4.89-1.5,0-3.23,1.8-4.43,3.16h-.68c3.91-4.89,8.42-11.28,13.38-11.28Zm2.03,33.9c9.47-5.49,13.61-13.68,13.61-20.82,0-3.46-1.13-4.96-2.41-4.96-1.43,0-3.16,1.35-7.82,11.58-.9,5.11-2.33,10.3-3.53,14.21h.15Zm21.72,0c9.4-5.49,13.53-13.68,13.53-20.82,0-3.46-1.13-4.96-2.41-4.96-1.35,0-3.16,1.35-7.82,11.58-.9,5.26-2.41,10.75-3.46,14.21h.15Z"/>
  </g>
  <g>
    <path class="cls-1" d="M83.46,46.28h.1l-.02,5.14h-.12c-.65-2.53-2.1-3.96-3.88-3.96-1.31,0-2.28,.77-2.28,1.92,0,.82,.45,1.45,1.86,2.55,2.28,1.77,3.24,3.08,3.24,4.55,0,2.41-2.55,5.12-5.75,5.12-1.12,0-2.55-.33-3.47-.86v-4.92h.12c.69,3.08,2.73,5.16,4.89,5.16,1.12,0,1.77-.57,1.77-1.43s-.57-1.63-2.41-3.2l-.94-.8c-2.08-1.77-2.73-2.75-2.73-3.87,0-2.45,3.16-4.49,6.51-4.49,.73,0,1.47,.1,2.67,.31l.45-1.22Z"/>
    <path class="cls-1" d="M86.74,47.85l-1.08-.33v-.1l5.02-1.45h.02l-3.69,12.77h.18l.41-1.04c1.69-4.24,2.98-6.51,4.61-6.51,1.12,0,2.28,1.08,2.28,2.77,0,3.1-3.28,7.67-5.61,7.67-.65,0-1.04-.35-1.04-.94,0-.73,.57-1.26,.77-1.41,.49,.53,1.35,1,2.06,1,.63,0,1.02-.37,1.04-1.73,.02-1.75-.59-4.63-1.49-4.63-.71,0-1.45,1.45-2.43,3.98l-1.35,3.49h-3.55l3.87-13.54Z"/>
    <path class="cls-1" d="M98.63,61.62c-2.14,0-3.71-1.35-3.71-3.63,0-3.81,3.18-6.81,6.53-6.81,2.1,0,3.73,1.29,3.73,3.67,0,3.57-3.24,6.77-6.55,6.77Zm.59-.26c1.28,0,2.59-4.75,2.59-7.61,0-1.41-.33-2.32-.82-2.32-1.33,0-2.69,4.49-2.69,7.4,0,1.51,.31,2.53,.92,2.53Z"/>
    <path class="cls-1" d="M112.26,48.81l-.69,2.41c.26-.02,.51-.04,.75-.04,2.26,0,3.88,1.29,3.88,3.69,0,3.55-3.22,6.75-6.55,6.75-.22,0-.61-.02-1.06-.06l-1.04,3.75h-3.43l3.57-12.48c-.63,.37-1.28,.82-1.92,1.29h-.18c.63-.63,1.39-1.18,2.2-1.63l1.06-3.69h3.41Zm-2.33,12.6c1.53,0,2.88-2.85,2.88-6.04,0-1.96-.49-3.1-1.43-3.47l-2.57,8.93c.27,.37,.69,.59,1.12,.59Z"/>
  </g>
</svg>