<?xml version="1.0" encoding="UTF-8"?>
<svg id="Layer_1" data-name="Layer 1" xmlns="http://www.w3.org/2000/svg" viewBox="0 0 152.14 41.12">
  <defs>
    <style>
      .cls-1 {
        fill: #f47b20;
      }
    </style>
  </defs>
  <path class="cls-1" d="M13.38,0c4.28,0,6.31,4.81,6.31,10.9,0,1.65-.15,3.46-.38,5.26h.23C24.88,4.96,28.56,0,33.52,0c4.43,0,7.74,4.21,7.74,11.95,0,1.28-.08,2.71-.3,4.21h.23C46.45,4.96,49.91,0,54.35,0c3.31,0,6.54,2.78,6.54,7.74,0,10.9-16.39,24.73-31.34,30.82l-6.31,2.56h-.3c1.13-3.98,3.01-10.07,4.43-16.09h-.3c-3.23,4.21-8.87,9.32-19.32,13.53l-6.31,2.56h-.3c2.03-6.92,6.09-20.37,6.09-28.11,0-4.06-.98-4.89-2.1-4.89-1.5,0-3.23,1.8-4.43,3.16H0C3.91,6.39,8.42,0,13.38,0Zm2.03,33.9c9.47-5.49,13.61-13.68,13.61-20.82,0-3.46-1.13-4.96-2.41-4.96-1.43,0-3.16,1.35-7.82,11.58-.9,5.11-2.33,10.3-3.53,14.21h.15Zm21.72,0c9.4-5.49,13.53-13.68,13.53-20.82,0-3.46-1.13-4.96-2.41-4.96-1.35,0-3.16,1.35-7.82,11.58-.9,5.26-2.41,10.75-3.46,14.21h.15Z"/>
  <path class="cls-1" d="M69.98,39.99c-8.19,0-14.21-5.19-14.21-13.91,0-14.58,12.18-26.08,25.03-26.08,8.04,0,14.28,4.96,14.28,14.06,0,13.68-12.4,25.93-25.11,25.93Zm2.26-.98c4.89,0,9.92-18.19,9.92-29.17,0-5.41-1.28-8.87-3.16-8.87-5.11,0-10.3,17.21-10.3,28.34,0,5.79,1.2,9.7,3.53,9.7Z"/>
  <path class="cls-1" d="M104.63,0c4.28,0,6.31,4.81,6.31,10.9,0,1.65-.15,3.46-.38,5.26h.23C116.13,4.96,119.81,0,124.78,0c4.43,0,7.74,4.21,7.74,11.95,0,1.28-.08,2.71-.3,4.21h.23c5.26-11.2,8.72-16.16,13.15-16.16,3.31,0,6.54,2.78,6.54,7.74,0,10.9-16.39,24.73-31.34,30.82l-6.31,2.56h-.3c1.13-3.98,3.01-10.07,4.43-16.09h-.3c-3.23,4.21-8.87,9.32-19.32,13.53l-6.31,2.56h-.3c2.03-6.92,6.09-20.37,6.09-28.11,0-4.06-.98-4.89-2.1-4.89-1.5,0-3.23,1.8-4.43,3.16h-.68c3.91-4.89,8.42-11.28,13.38-11.28Zm2.03,33.9c9.47-5.49,13.61-13.68,13.61-20.82,0-3.46-1.13-4.96-2.41-4.96-1.43,0-3.16,1.35-7.82,11.58-.9,5.11-2.33,10.3-3.53,14.21h.15Zm21.72,0c9.4-5.49,13.53-13.68,13.53-20.82,0-3.46-1.13-4.96-2.41-4.96-1.35,0-3.16,1.35-7.82,11.58-.9,5.26-2.41,10.75-3.46,14.21h.15Z"/>
</svg>